<svg id="Layer_1" enable-background="new 0 0 256 256" height="512" viewBox="0 0 256 256" width="512" xmlns="http://www.w3.org/2000/svg"><g><path d="m143.796 179.901c-14.232 0-28.211-3.821-40.427-11.05-1.188-.703-1.581-2.236-.878-3.425.703-1.188 2.236-1.581 3.425-.878 11.444 6.773 24.543 10.353 37.88 10.353 41.083 0 74.507-33.424 74.507-74.507 0-1.381 1.119-2.5 2.5-2.5s2.5 1.119 2.5 2.5c0 43.84-35.667 79.507-79.507 79.507z" fill="#ebe7f2"/><g fill="#846f75"><path d="m97.475 194.661c-1.298-1.299-3.024-2.014-4.861-2.014s-3.563.715-4.86 2.014l-4.64 4.639c-.731.731-1.92.731-2.651 0l-18.675-18.675c-.73-.731-.73-1.92 0-2.651l4.64-4.639c1.299-1.298 2.014-3.025 2.014-4.861s-.715-3.563-2.014-4.86l-17.583-17.583c-1.298-1.299-3.024-2.014-4.861-2.014s-3.563.715-4.86 2.013l-4.769 4.769c-4.722 4.721-7.322 10.999-7.322 17.675 0 6.677 2.6 12.954 7.322 17.675l40.584 40.584c4.721 4.722 10.999 7.322 17.675 7.322 6.677 0 12.954-2.6 17.675-7.322l4.769-4.768c1.299-1.298 2.014-3.024 2.014-4.861s-.715-3.563-2.014-4.861zm14.047 23.769-4.769 4.769c-3.777 3.777-8.798 5.857-14.14 5.857-5.341 0-10.362-2.08-14.14-5.857l-40.584-40.584c-3.777-3.777-5.857-8.798-5.857-14.14 0-5.341 2.08-10.362 5.857-14.139l4.769-4.769c.354-.354.824-.549 1.325-.549s.971.195 1.326.549l17.583 17.583c.354.354.549.824.549 1.325s-.195.971-.549 1.326l-4.64 4.64c-2.68 2.681-2.68 7.042 0 9.721l18.675 18.675c2.679 2.681 7.041 2.68 9.721 0l4.64-4.64c.708-.708 1.941-.708 2.65 0l17.583 17.583c.354.354.549.825.549 1.326s-.194.969-.548 1.324z"/><path d="m142.211 28.505c-45.154 0-81.889 36.735-81.889 81.889 0 18.321 6.229 36.27 17.558 50.646v17.71c0 1.381 1.119 2.5 2.5 2.5h20.788c12.44 7.22 26.617 11.033 41.044 11.033 45.153 0 81.889-36.735 81.889-81.889s-36.737-81.889-81.89-81.889zm0 158.778c-13.763 0-27.281-3.694-39.092-10.684-.386-.229-.826-.349-1.273-.349h-18.967v-16.084c0-.571-.195-1.125-.554-1.569-11.124-13.802-17.004-30.47-17.004-48.203 0-42.396 34.492-76.889 76.889-76.889 42.396 0 76.889 34.492 76.889 76.889s-34.492 76.889-76.888 76.889z"/></g><g fill="#65c1d6"><path d="m164.372 103.611c-10.332 0-16.5-6.561-16.5-17.551 0-11.009 6.428-27.001 16.5-27.001 10.073 0 16.501 15.992 16.501 27.001 0 10.99-6.169 17.551-16.501 17.551zm0-39.552c-5.481 0-11.5 11.515-11.5 22.001 0 8.328 3.869 12.551 11.5 12.551 7.632 0 11.501-4.223 11.501-12.551 0-10.487-6.019-22.001-11.501-22.001z"/><path d="m164.372 160.786c-4.101 0-7.438-3.336-7.438-7.438v-42.022c0-1.381 1.119-2.5 2.5-2.5s2.5 1.119 2.5 2.5v42.022c0 1.344 1.094 2.438 2.438 2.438 1.345 0 2.438-1.094 2.438-2.438v-42.022c0-1.381 1.119-2.5 2.5-2.5s2.5 1.119 2.5 2.5v42.022c.001 4.102-3.336 7.438-7.438 7.438z"/><path d="m119.644 103.611c-8.875 0-16.096-7.221-16.096-16.096v-25.956c0-1.381 1.119-2.5 2.5-2.5s2.5 1.119 2.5 2.5v25.956c0 6.119 4.978 11.096 11.096 11.096 6.119 0 11.096-4.978 11.096-11.096v-25.956c0-1.381 1.119-2.5 2.5-2.5s2.5 1.119 2.5 2.5v25.956c0 8.875-7.22 16.096-16.096 16.096z"/><path d="m119.644 88.062c-1.381 0-2.5-1.119-2.5-2.5v-24.003c0-1.381 1.119-2.5 2.5-2.5s2.5 1.119 2.5 2.5v24.003c0 1.381-1.119 2.5-2.5 2.5z"/><path d="m133.24 90.015h-27.192c-1.381 0-2.5-1.119-2.5-2.5s1.119-2.5 2.5-2.5h27.192c1.381 0 2.5 1.119 2.5 2.5s-1.119 2.5-2.5 2.5z"/><path d="m119.637 160.786c-4.101 0-7.438-3.336-7.438-7.438v-42.022c0-1.381 1.119-2.5 2.5-2.5s2.5 1.119 2.5 2.5v42.022c0 1.344 1.094 2.438 2.438 2.438s2.438-1.094 2.438-2.438v-42.022c0-1.381 1.119-2.5 2.5-2.5s2.5 1.119 2.5 2.5v42.022c0 4.102-3.337 7.438-7.438 7.438z"/></g></g></svg>